<svg width="225" height="23" viewBox="0 0 225 23" fill="none" xmlns="http://www.w3.org/2000/svg">
<path d="M11.032 2.24494V4.31694H2.548V10.8969H9.436V12.9689H2.548V21.7609H0V2.24494H11.032Z" fill="#373D4F"/>
<path d="M15.4254 3.92494C14.94 3.92494 14.5294 3.75694 14.1934 3.42094C13.8574 3.08494 13.6894 2.67427 13.6894 2.18894C13.6894 1.70361 13.8574 1.29294 14.1934 0.956941C14.5294 0.620941 14.94 0.452941 15.4254 0.452941C15.892 0.452941 16.284 0.620941 16.6014 0.956941C16.9374 1.29294 17.1054 1.70361 17.1054 2.18894C17.1054 2.67427 16.9374 3.08494 16.6014 3.42094C16.284 3.75694 15.892 3.92494 15.4254 3.92494ZM16.6574 6.41694V21.7609H14.1094V6.41694H16.6574Z" fill="#373D4F"/>
<path d="M28.476 6.13694C30.3427 6.13694 31.8547 6.70627 33.012 7.84494C34.1693 8.96494 34.748 10.5889 34.748 12.7169V21.7609H32.228V13.0809C32.228 11.5503 31.8453 10.3836 31.08 9.58094C30.3147 8.75961 29.2693 8.34894 27.944 8.34894C26.6 8.34894 25.5267 8.76894 24.724 9.60894C23.94 10.4489 23.548 11.6716 23.548 13.2769V21.7609H21V6.41694H23.548V8.60094C24.052 7.81694 24.7333 7.21027 25.592 6.78094C26.4693 6.35161 27.4307 6.13694 28.476 6.13694Z" fill="#373D4F"/>
<path d="M37.9582 14.0329C37.9582 12.4649 38.2755 11.0929 38.9102 9.91694C39.5448 8.72227 40.4128 7.79827 41.5142 7.14494C42.6342 6.49161 43.8848 6.16494 45.2662 6.16494C46.4608 6.16494 47.5715 6.44494 48.5982 7.00494C49.6248 7.54627 50.4088 8.26494 50.9502 9.16094V1.04094H53.5262V21.7609H50.9502V18.8769C50.4462 19.7916 49.6995 20.5476 48.7102 21.1449C47.7208 21.7236 46.5635 22.0129 45.2382 22.0129C43.8755 22.0129 42.6342 21.6769 41.5142 21.0049C40.4128 20.3329 39.5448 19.3903 38.9102 18.1769C38.2755 16.9636 37.9582 15.5823 37.9582 14.0329ZM50.9502 14.0609C50.9502 12.9036 50.7168 11.8956 50.2502 11.0369C49.7835 10.1783 49.1488 9.52494 48.3462 9.07694C47.5622 8.61027 46.6942 8.37694 45.7422 8.37694C44.7902 8.37694 43.9222 8.60094 43.1382 9.04894C42.3542 9.49694 41.7288 10.1503 41.2622 11.0089C40.7955 11.8676 40.5622 12.8756 40.5622 14.0329C40.5622 15.2089 40.7955 16.2356 41.2622 17.1129C41.7288 17.9716 42.3542 18.6343 43.1382 19.1009C43.9222 19.5489 44.7902 19.7729 45.7422 19.7729C46.6942 19.7729 47.5622 19.5489 48.3462 19.1009C49.1488 18.6343 49.7835 17.9716 50.2502 17.1129C50.7168 16.2356 50.9502 15.2183 50.9502 14.0609Z" fill="#373D4F"/>
<path d="M71.832 13.5009C71.832 13.9863 71.804 14.4996 71.748 15.0409H59.484C59.5774 16.5529 60.0907 17.7383 61.024 18.5969C61.976 19.4369 63.124 19.8569 64.468 19.8569C65.5694 19.8569 66.484 19.6049 67.212 19.1009C67.9587 18.5783 68.4814 17.8876 68.78 17.0289H71.524C71.1134 18.5036 70.292 19.7076 69.06 20.6409C67.828 21.5556 66.2974 22.0129 64.468 22.0129C63.012 22.0129 61.7054 21.6863 60.548 21.0329C59.4094 20.3796 58.5134 19.4556 57.86 18.2609C57.2067 17.0476 56.88 15.6476 56.88 14.0609C56.88 12.4743 57.1974 11.0836 57.832 9.88894C58.4667 8.69427 59.3534 7.77961 60.492 7.14494C61.6494 6.49161 62.9747 6.16494 64.468 6.16494C65.924 6.16494 67.212 6.48227 68.332 7.11694C69.452 7.75161 70.3107 8.62894 70.908 9.74894C71.524 10.8503 71.832 12.1009 71.832 13.5009ZM69.2 12.9689C69.2 11.9983 68.9854 11.1676 68.556 10.4769C68.1267 9.76761 67.5387 9.23561 66.792 8.88094C66.064 8.50761 65.252 8.32094 64.356 8.32094C63.068 8.32094 61.9667 8.73161 61.052 9.55294C60.156 10.3743 59.6427 11.5129 59.512 12.9689H69.2Z" fill="#373D4F"/>
<path d="M77.7433 8.90894C78.1913 8.03161 78.826 7.35027 79.6473 6.86494C80.4873 6.37961 81.5047 6.13694 82.6993 6.13694V8.76894H82.0273C79.1713 8.76894 77.7433 10.3183 77.7433 13.4169V21.7609H75.1953V6.41694H77.7433V8.90894Z" fill="#373D4F"/>
<path d="M92.1646 21.9569C90.802 21.9569 89.57 21.7236 88.4686 21.2569C87.386 20.7903 86.5273 20.1183 85.8926 19.2409C85.258 18.3636 84.9313 17.3276 84.9126 16.1329H89.1126C89.1686 16.9356 89.4486 17.5703 89.9526 18.0369C90.4753 18.5036 91.1846 18.7369 92.0806 18.7369C92.9953 18.7369 93.714 18.5223 94.2366 18.0929C94.7593 17.6449 95.0206 17.0663 95.0206 16.3569C95.0206 15.7783 94.8433 15.3023 94.4886 14.9289C94.134 14.5556 93.686 14.2663 93.1446 14.0609C92.622 13.8369 91.894 13.5943 90.9606 13.3329C89.6913 12.9596 88.6553 12.5956 87.8526 12.2409C87.0686 11.8676 86.3873 11.3169 85.8086 10.5889C85.2486 9.84227 84.9686 8.85294 84.9686 7.62094C84.9686 6.46361 85.258 5.45561 85.8366 4.59694C86.4153 3.73827 87.2273 3.08494 88.2726 2.63694C89.318 2.17027 90.5126 1.93694 91.8566 1.93694C93.8726 1.93694 95.506 2.43161 96.7566 3.42094C98.026 4.39161 98.726 5.75427 98.8566 7.50894H94.5446C94.5073 6.83694 94.218 6.28628 93.6766 5.85694C93.154 5.40894 92.454 5.18494 91.5766 5.18494C90.8113 5.18494 90.1953 5.38094 89.7286 5.77294C89.2806 6.16494 89.0566 6.73428 89.0566 7.48094C89.0566 8.00361 89.2246 8.44227 89.5606 8.79694C89.9153 9.13294 90.3446 9.41294 90.8486 9.63694C91.3713 9.84227 92.0993 10.0849 93.0326 10.3649C94.302 10.7383 95.338 11.1116 96.1406 11.4849C96.9433 11.8583 97.634 12.4183 98.2126 13.1649C98.7913 13.9116 99.0806 14.8916 99.0806 16.1049C99.0806 17.1503 98.81 18.1209 98.2686 19.0169C97.7273 19.9129 96.934 20.6316 95.8886 21.1729C94.8433 21.6956 93.602 21.9569 92.1646 21.9569Z" fill="#373D4F"/>
<path d="M109.367 22.0129C107.874 22.0129 106.53 21.6863 105.335 21.0329C104.14 20.3609 103.198 19.4183 102.507 18.2049C101.835 16.9916 101.499 15.5916 101.499 14.0049C101.499 12.4183 101.844 11.0183 102.535 9.80494C103.244 8.59161 104.206 7.65827 105.419 7.00494C106.632 6.33294 107.986 5.99694 109.479 5.99694C110.972 5.99694 112.326 6.33294 113.539 7.00494C114.752 7.65827 115.704 8.59161 116.395 9.80494C117.104 11.0183 117.459 12.4183 117.459 14.0049C117.459 15.5916 117.095 16.9916 116.367 18.2049C115.658 19.4183 114.687 20.3609 113.455 21.0329C112.242 21.6863 110.879 22.0129 109.367 22.0129ZM109.367 18.5969C110.076 18.5969 110.739 18.4289 111.355 18.0929C111.99 17.7383 112.494 17.2156 112.867 16.5249C113.24 15.8343 113.427 14.9943 113.427 14.0049C113.427 12.5303 113.035 11.4009 112.251 10.6169C111.486 9.81427 110.543 9.41294 109.423 9.41294C108.303 9.41294 107.36 9.81427 106.595 10.6169C105.848 11.4009 105.475 12.5303 105.475 14.0049C105.475 15.4796 105.839 16.6183 106.567 17.4209C107.314 18.2049 108.247 18.5969 109.367 18.5969Z" fill="#373D4F"/>
<path d="M127.447 9.46894H124.731V21.7609H120.755V9.46894H118.991V6.24894H120.755V5.46494C120.755 3.56094 121.296 2.16094 122.379 1.26494C123.461 0.368941 125.095 -0.0510592 127.279 0.00494124V3.30894C126.327 3.29027 125.664 3.44894 125.291 3.78494C124.917 4.12094 124.731 4.72761 124.731 5.60494V6.24894H127.447V9.46894Z" fill="#373D4F"/>
<path d="M134.551 9.46894V16.9729C134.551 17.4956 134.672 17.8783 134.915 18.1209C135.176 18.3449 135.606 18.4569 136.203 18.4569H138.023V21.7609H135.559C132.255 21.7609 130.603 20.1556 130.603 16.9449V9.46894H128.755V6.24894H130.603V2.41294H134.551V6.24894H138.023V9.46894H134.551Z" fill="#373D4F"/>
<path d="M162.346 6.24894L157.81 21.7609H153.582L150.754 10.9249L147.926 21.7609H143.67L139.106 6.24894H143.082L145.826 18.0649L148.794 6.24894H152.938L155.85 18.0369L158.594 6.24894H162.346Z" fill="#373D4F"/>
<path d="M163.459 13.9489C163.459 12.3809 163.767 10.9903 164.383 9.77694C165.018 8.56361 165.867 7.63027 166.931 6.97694C168.014 6.32361 169.218 5.99694 170.543 5.99694C171.701 5.99694 172.709 6.23027 173.567 6.69694C174.445 7.16361 175.145 7.75161 175.667 8.46094V6.24894H179.615V21.7609H175.667V19.4929C175.163 20.2209 174.463 20.8276 173.567 21.3129C172.69 21.7796 171.673 22.0129 170.515 22.0129C169.209 22.0129 168.014 21.6769 166.931 21.0049C165.867 20.3329 165.018 19.3903 164.383 18.1769C163.767 16.9449 163.459 15.5356 163.459 13.9489ZM175.667 14.0049C175.667 13.0529 175.481 12.2409 175.107 11.5689C174.734 10.8783 174.23 10.3556 173.595 10.0009C172.961 9.62761 172.279 9.44094 171.551 9.44094C170.823 9.44094 170.151 9.61827 169.535 9.97294C168.919 10.3276 168.415 10.8503 168.023 11.5409C167.65 12.2129 167.463 13.0156 167.463 13.9489C167.463 14.8823 167.65 15.7036 168.023 16.4129C168.415 17.1036 168.919 17.6356 169.535 18.0089C170.17 18.3823 170.842 18.5689 171.551 18.5689C172.279 18.5689 172.961 18.3916 173.595 18.0369C174.23 17.6636 174.734 17.1409 175.107 16.4689C175.481 15.7783 175.667 14.9569 175.667 14.0049Z" fill="#373D4F"/>
<path d="M187.364 8.65694C187.868 7.83561 188.521 7.19161 189.324 6.72494C190.145 6.25827 191.079 6.02494 192.124 6.02494V10.1409H191.088C189.856 10.1409 188.923 10.4303 188.288 11.0089C187.672 11.5876 187.364 12.5956 187.364 14.0329V21.7609H183.444V6.24894H187.364V8.65694Z" fill="#373D4F"/>
<path d="M209.184 13.6689C209.184 14.2289 209.147 14.7329 209.072 15.1809H197.732C197.826 16.3009 198.218 17.1783 198.908 17.8129C199.599 18.4476 200.448 18.7649 201.456 18.7649C202.912 18.7649 203.948 18.1396 204.564 16.8889H208.792C208.344 18.3823 207.486 19.6143 206.216 20.5849C204.947 21.5369 203.388 22.0129 201.54 22.0129C200.047 22.0129 198.703 21.6863 197.508 21.0329C196.332 20.3609 195.408 19.4183 194.736 18.2049C194.083 16.9916 193.756 15.5916 193.756 14.0049C193.756 12.3996 194.083 10.9903 194.736 9.77694C195.39 8.56361 196.304 7.63027 197.48 6.97694C198.656 6.32361 200.01 5.99694 201.54 5.99694C203.015 5.99694 204.331 6.31428 205.488 6.94894C206.664 7.58361 207.57 8.48894 208.204 9.66494C208.858 10.8223 209.184 12.1569 209.184 13.6689ZM205.124 12.5489C205.106 11.5409 204.742 10.7383 204.032 10.1409C203.323 9.52494 202.455 9.21694 201.428 9.21694C200.458 9.21694 199.636 9.51561 198.964 10.1129C198.311 10.6916 197.91 11.5036 197.76 12.5489H205.124Z" fill="#373D4F"/>
<path d="M217.982 22.0129C216.712 22.0129 215.574 21.7889 214.566 21.3409C213.558 20.8743 212.755 20.2489 212.158 19.4649C211.579 18.6809 211.262 17.8129 211.206 16.8609H215.154C215.228 17.4583 215.518 17.9529 216.022 18.3449C216.544 18.7369 217.188 18.9329 217.954 18.9329C218.7 18.9329 219.279 18.7836 219.69 18.4849C220.119 18.1863 220.334 17.8036 220.334 17.3369C220.334 16.8329 220.072 16.4596 219.55 16.2169C219.046 15.9556 218.234 15.6756 217.114 15.3769C215.956 15.0969 215.004 14.8076 214.258 14.5089C213.53 14.2103 212.895 13.7529 212.354 13.1369C211.831 12.5209 211.57 11.6903 211.57 10.6449C211.57 9.78627 211.812 9.00227 212.298 8.29294C212.802 7.58361 213.511 7.02361 214.426 6.61294C215.359 6.20227 216.451 5.99694 217.702 5.99694C219.55 5.99694 221.024 6.46361 222.126 7.39694C223.227 8.31161 223.834 9.55294 223.946 11.1209H220.194C220.138 10.5049 219.876 10.0196 219.41 9.66494C218.962 9.29161 218.355 9.10494 217.59 9.10494C216.88 9.10494 216.33 9.23561 215.938 9.49694C215.564 9.75827 215.378 10.1223 215.378 10.5889C215.378 11.1116 215.639 11.5129 216.162 11.7929C216.684 12.0543 217.496 12.3249 218.598 12.6049C219.718 12.8849 220.642 13.1743 221.37 13.4729C222.098 13.7716 222.723 14.2383 223.246 14.8729C223.787 15.4889 224.067 16.3103 224.086 17.3369C224.086 18.2329 223.834 19.0356 223.33 19.7449C222.844 20.4543 222.135 21.0143 221.202 21.4249C220.287 21.8169 219.214 22.0129 217.982 22.0129Z" fill="#373D4F"/>
</svg>
